# xmcd
#
# Track frame offsets: 
#        182
#        8427
#        18362
#        32265
#        57322
#        71317
#        93060
#        110020
#        127072
#        138555
#        156120
#        167567
#        181285
#        198895
#        217705
#        231355
#        245175
#        255525
#        272362
#        284205
#
# Disc length: 4022 seconds
#
# Revision: 2
# Processed by: cddbd v1.5.2PL0 Copyright (c) Steve Scherf et al.
# Submitted via: ExactAudioCopy v1.0b3
#
DISCID=0f0fb414
DTITLE=Johnny Paycheck - Live At Gilley's
DYEAR=1999
DGENRE=Country
TTITLE0=I`m Ragged But I`m Right
TTITLE1=You`re Still On My Mind
TTITLE2=I`m The Only Hell (Mama Ever Raised)
TTITLE3=I Did The Right Thing
TTITLE4=Drinkin` And Drivin`
TTITLE5=You Once Lived Here
TTITLE6=11 Month And 29 Days
TTITLE7=Colorado Cool-Aid
TTITLE8=Slide Off Your Satin Sheets
TTITLE9=Yesterday`s News Just Hit Home Today
TTITLE10=Take This Job And Shove It
TTITLE11=Rollin` In My Sweet Baby`s Arms
TTITLE12=(Stay Away From) The Cocaine Train
TTITLE13=Touch My Heart
TTITLE14=(Don`t Take Her) She`s All I Got
TTITLE15=You Don`t Have Very Far To Go
TTITLE16=I Never Met A Girl I Didn`t Like
TTITLE17=I Am What I Am
TTITLE18=Ramblin` Fever
TTITLE19=I Never Got Over You
EXTD=YEAR: 1999
EXTT0=
EXTT1=
EXTT2=
EXTT3=
EXTT4=
EXTT5=
EXTT6=
EXTT7=
EXTT8=
EXTT9=
EXTT10=
EXTT11=
EXTT12=
EXTT13=
EXTT14=
EXTT15=
EXTT16=
EXTT17=
EXTT18=
EXTT19=
PLAYORDER=
